# File produced by Open Asset Import Library (http://www.assimp.sf.net)
# (assimp v3.1.24787357)

mtllib bencube.mtl

# 8 vertex positions
v  1 -1 -1
v  -1 -1 1
v  -1 -1 -1
v  -1 1 -1
v  0.999999 1 1
v  1 1 -0.999999
v  1 -1 1
v  -1 1 1

# 13 UV coordinates
vt 0 0.666667 0
vt 0.333333 1 0
vt 0 1 0
vt 0.333333 0.666667 0
vt 0 0.333333 0
vt 0.333333 0.333333 0
vt 0.666667 0 0
vt 0.666667 0.333333 0
vt 0 0 0
vt 1 0.333333 0
vt 1 0 0
vt 0.333333 0 0
vt 0.666667 0.666667 0

# 6 vertex normals
vn 0 -1 0
vn 0 1 0
vn 1 -0 0
vn 0 -0 1
vn -1 -0 -0
vn 0 0 -1

# Mesh 'Cube_Cube' with 12 faces
g Cube_Cube
usemtl Material
f  1/1/1 2/2/1 3/3/1
f  4/4/2 5/5/2 6/6/2
f  6/6/3 7/7/3 1/8/3
f  5/9/4 2/6/4 7/5/4
f  2/10/5 4/7/5 3/11/5
f  1/8/6 4/4/6 6/6/6
f  1/1/1 7/4/1 2/2/1
f  4/4/2 8/1/2 5/5/2
f  6/6/3 5/12/3 7/7/3
f  5/9/4 8/12/4 2/6/4
f  2/10/5 8/8/5 4/7/5
f  1/8/6 3/13/6 4/4/6

